# xmcd
#
# Track frame offsets:
#	150
#	13081
#	25042
#	41216
#	55297
#	74731
#	88189
#	100974
#	114397
#	129982
#	144226
#	163485
#	178466
#	197882
#	214431
#	231888
#	245609
#	261075
#	277043
#	291554
#
# Disc length: 4118 seconds
#
# Revision: 2
# Processed by: cddbd v1.5.1PL2 Copyright (c) Steve Scherf et al.
# Submitted via: audiograbber 1.83.01
#
DISCID=48101414
DTITLE=Kenny Rogers - Country Greatest
DYEAR=2000
DGENRE=
TTITLE0=Ruby, Don't Take Your Love To Town
TTITLE1=Ruben James
TTITLE2=Lucille
TTITLE3=Daytime Friends
TTITLE4=Sweet Music Man
TTITLE5=You And Me (with Dottie West)
TTITLE6=Love Or Something Like It
TTITLE7=Everytime Time Two Fools Collide (with Dottie West)
TTITLE8=The Gambler
TTITLE9=All I Ever Need Is You (with Dottie West)
TTITLE10=She Believes In Me
TTITLE11='Til I Can't Make It On My Own
TTITLE12=Coward Of The County
TTITLE13=Don't Fall In Love With A Dreamer (with Kim Carnes)
TTITLE14=Lady
TTITLE15=What Are We Doin' In Love (with Dottie West)
TTITLE16=I Don't Need You
TTITLE17=Love Will Turn You Around
TTITLE18=A Love Song 3,14
TTITLE19=We've Got Tonight (with Sheena Easton)
EXTD=
EXTT0=
EXTT1=
EXTT2=
EXTT3=
EXTT4=
EXTT5=
EXTT6=
EXTT7=
EXTT8=
EXTT9=
EXTT10=
EXTT11=
EXTT12=
EXTT13=
EXTT14=
EXTT15=
EXTT16=
EXTT17=
EXTT18=
EXTT19=
PLAYORDER=
